<?xml version="1.0" encoding="UTF-8"?><svg id="_レイヤー_2" xmlns="http://www.w3.org/2000/svg" viewBox="0 0 510 510"><defs><style>.cls-1{fill:#fff;}</style></defs><g id="_2"><path class="cls-1" d="m510,255C510,114.17,395.83,0,255,0S0,147.39,0,255c0,140.83,114.17,255,255,255s255-114.17,255-255Zm-252.4,129.45l-116.06-121.99c-11.23-11.79-10.77-30.43,1.03-41.65,11.79-11.22,30.45-10.75,41.65,1.03l47.31,49.73v-117.8c0-16.28,13.19-29.47,29.47-29.47s29.46,13.19,29.46,29.47v117.8l47.31-49.73c11.19-11.78,29.86-12.25,41.64-1.03,11.8,11.22,12.27,29.86,1.03,41.65l-116.05,121.99c-.89.93-2.11,1.45-3.4,1.45s-2.51-.52-3.4-1.45Z"/></g></svg>