<?xml version="1.0" encoding="UTF-8"?><svg id="_レイヤー_2" xmlns="http://www.w3.org/2000/svg" viewBox="0 0 446.6 512"><defs><style>.cls-1{fill:#82ad36;}</style></defs><g id="_2"><path class="cls-1" d="m421.78,0H133.17c-13.65,0-32.71,7.89-42.36,17.54L17.54,90.81C7.89,100.46,0,119.52,0,133.17v354.02c0,13.65,11.17,24.81,24.81,24.81h396.97c13.65,0,24.81-11.17,24.81-24.81V24.81c0-13.65-11.17-24.81-24.81-24.81Zm-137.21,399.2c0,2.1-1.7,3.8-3.8,3.8H100.59c-2.1,0-3.8-1.7-3.8-3.8v-16.71c0-2.1,1.7-3.8,3.8-3.8h180.19c2.1,0,3.8,1.7,3.8,3.8v16.71Zm65.23-76.37c0,2.43-1.97,4.41-4.41,4.41H101.2c-2.43,0-4.41-1.97-4.41-4.41v-15.49c0-2.43,1.97-4.41,4.41-4.41h244.2c2.43,0,4.41,1.97,4.41,4.41v15.49h0Zm0-75.75c0,2.43-1.97,4.41-4.41,4.41H101.2c-2.43,0-4.41-1.97-4.41-4.41v-15.49c0-2.43,1.97-4.41,4.41-4.41h244.2c2.43,0,4.41,1.97,4.41,4.41v15.49h0Zm0-75.75c0,2.43-1.97,4.41-4.41,4.41H101.2c-2.43,0-4.41-1.97-4.41-4.41v-15.49c0-2.43,1.97-4.41,4.41-4.41h244.2c2.43,0,4.41,1.97,4.41,4.41v15.49h0Z"/></g></svg>