<?xml version="1.0" encoding="UTF-8"?><svg id="_レイヤー_2" xmlns="http://www.w3.org/2000/svg" viewBox="0 0 512 511.99"><defs><style>.cls-1{fill:#333;}</style></defs><g id="_2"><path class="cls-1" d="m255.99,0C114.61,0,.01,114.61,0,255.99c.01,141.39,114.61,255.99,255.99,255.99,141.4,0,256-114.61,256.01-255.99C511.99,114.61,397.39,0,255.99,0ZM97.61,97.61c23.34-23.33,51.76-41.47,83.46-52.72-15.18,18.38-27.84,41.91-37.76,69.12h-60.53c4.68-5.69,9.62-11.18,14.83-16.39Zm-32,40.39h69.99c-9.01,31.93-14.41,67.83-15.36,106H32.33c2.05-38.8,13.97-74.91,33.28-106Zm0,235.99c-19.31-31.09-31.24-67.19-33.28-106h87.99c.96,38.12,6.21,74.09,15.21,106h-69.91Zm32,40.39c-5.21-5.21-10.16-10.7-14.84-16.39h60.57c4.28,11.77,9.02,22.94,14.31,33.21,6.95,13.44,14.76,25.47,23.35,35.89-31.67-11.25-60.07-29.4-83.4-52.71Zm146.39,65.28c-3.75-.2-7.47-.48-11.16-.86-5.89-2.64-11.72-6.25-17.5-10.96-17.63-14.36-33.98-38.67-46.4-69.85h75.06v81.67h0Zm0-105.67h-83.44c-9.48-31.17-15.32-67.31-16.33-106h99.76v106h0Zm0-130h-99.69c1.01-38.71,6.88-74.82,16.36-106h83.33v106h0Zm0-130h-74.95c3.11-7.79,6.37-15.31,9.93-22.19,10.64-20.62,23.17-36.89,36.35-47.66,5.78-4.71,11.61-8.32,17.5-10.96,3.7-.38,7.42-.66,11.16-.86v81.67h0Zm202.39,24c19.31,31.09,31.23,67.19,33.28,106h-87.99c-.96-38.12-6.21-74.09-15.21-106h69.92Zm-32-40.39c5.21,5.21,10.16,10.7,14.84,16.39h-60.58c-4.28-11.77-9.02-22.94-14.31-33.21-6.95-13.44-14.76-25.47-23.35-35.89,31.68,11.26,60.07,29.4,83.4,52.71Zm-146.4-65.28c3.75.19,7.47.48,11.16.86,5.89,2.65,11.72,6.25,17.5,10.96,17.64,14.36,33.98,38.67,46.4,69.85h-75.06V32.33Zm0,105.67h83.44c9.48,31.17,15.32,67.31,16.33,106h-99.76v-106Zm0,130h99.68c-1.01,38.71-6.87,74.82-16.36,106h-83.33v-106Zm28.66,199.85c-5.78,4.71-11.61,8.31-17.5,10.96-3.69.38-7.41.66-11.16.86v-81.67h74.95c-3.11,7.79-6.37,15.31-9.93,22.2-10.64,20.62-23.17,36.89-36.35,47.65Zm117.73-53.46c-23.34,23.33-51.76,41.48-83.46,52.73,15.19-18.38,27.83-41.9,37.76-69.11h60.54c-4.68,5.7-9.62,11.18-14.84,16.39Zm32-40.39h-70c9.01-31.93,14.41-67.84,15.37-106h87.91c-2.05,38.8-13.97,74.91-33.28,106Z"/></g></svg>