<?xml version="1.0" standalone="no"?><!DOCTYPE svg PUBLIC "-//W3C//DTD SVG 1.1//EN" "http://www.w3.org/Graphics/SVG/1.1/DTD/svg11.dtd"><svg class="icon" width="200px" height="200.00px" viewBox="0 0 1024 1024" version="1.1" xmlns="http://www.w3.org/2000/svg"><path d="M976 912H48c-26.464 0-48-21.536-48-48V160c0-26.464 21.536-48 48-48h928c26.464 0 48 21.536 48 48v704c0 26.464-21.536 48-48 48zM48 144c-8.816 0-16 7.184-16 16v704c0 8.816 7.184 16 16 16h928c8.816 0 16-7.184 16-16V160c0-8.816-7.184-16-16-16H48z" fill="#ffffff" /><path d="M1008 336H16a16 16 0 0 1 0-32h992a16 16 0 0 1 0 32zM512 912a16 16 0 0 1-16-16v-64a16 16 0 0 1 32 0v64a16 16 0 0 1-16 16zM512 784a16 16 0 0 1-16-16v-32a16 16 0 0 1 32 0v32a16 16 0 0 1-16 16zM512 688a16 16 0 0 1-16-16v-32a16 16 0 0 1 32 0v32a16 16 0 0 1-16 16zM512 592a16 16 0 0 1-16-16v-32a16 16 0 0 1 32 0v32a16 16 0 0 1-16 16zM512 496a16 16 0 0 1-16-16v-32a16 16 0 0 1 32 0v32a16 16 0 0 1-16 16z" fill="#ffffff" /><path d="M512 400a16 16 0 0 1-16-16v-64a16 16 0 0 1 32 0v64a16 16 0 0 1-16 16zM656 736a15.952 15.952 0 0 1-8.88-2.688l-48-32a16 16 0 0 1 17.76-26.624l37.44 24.96 246.72-231.312a16 16 0 0 1 21.92 23.328l-256 240A16 16 0 0 1 656 736z" fill="#ffffff" /><path d="M816 752a16 16 0 0 1-16-16v-144h-144a16 16 0 0 1 0-32h160a16 16 0 0 1 16 16v160a16 16 0 0 1-16 16zM912 208H112a16 16 0 0 1 0-32h800a16 16 0 0 1 0 32zM720 272H112a16 16 0 0 1 0-32h608a16 16 0 0 1 0 32zM912 272c-4.16 0-8.32-1.76-11.36-4.64-2.88-3.04-4.64-7.2-4.64-11.36 0-4.16 1.76-8.32 4.64-11.36 5.92-5.92 16.64-5.92 22.72 0 2.88 3.04 4.64 7.2 4.64 11.36 0 4.16-1.76 8.32-4.64 11.36-3.04 2.88-7.2 4.64-11.36 4.64zM848 272c-4.16 0-8.32-1.76-11.36-4.64-2.88-3.04-4.64-7.2-4.64-11.36 0-4.16 1.76-8.32 4.64-11.36 6.08-5.92 16.8-5.92 22.72 0 2.88 3.04 4.64 7.2 4.64 11.36 0 4.32-1.76 8.32-4.64 11.36-3.04 2.88-7.2 4.64-11.36 4.64zM784 272c-4.16 0-8.32-1.76-11.36-4.64-2.88-3.04-4.64-7.04-4.64-11.36 0-4.16 1.76-8.32 4.64-11.36 5.92-5.92 16.64-5.92 22.72 0 2.88 3.04 4.64 7.2 4.64 11.36 0 4.16-1.76 8.32-4.64 11.36-3.04 2.88-7.2 4.64-11.36 4.64zM400 576H112a16 16 0 0 1-16-16v-96a16 16 0 0 1 16-16h288a16 16 0 0 1 16 16v96a16 16 0 0 1-16 16zM128 544h256v-64H128v64zM400 640H112a16 16 0 0 1 0-32h288a16 16 0 0 1 0 32zM400 704H112a16 16 0 0 1 0-32h288a16 16 0 0 1 0 32zM208 768H112a16 16 0 0 1 0-32h96a16 16 0 0 1 0 32zM400 768c-4.32 0-8.32-1.76-11.36-4.64-2.88-3.04-4.64-7.2-4.64-11.36 0-4.16 1.76-8.32 4.64-11.36 5.92-5.92 16.8-5.92 22.72 0 2.88 3.04 4.64 7.2 4.64 11.36 0 4.16-1.76 8.32-4.64 11.36-3.04 2.88-7.2 4.64-11.36 4.64zM336 768c-4.16 0-8.32-1.76-11.36-4.64-2.88-3.04-4.64-7.2-4.64-11.36 0-4.16 1.76-8.32 4.64-11.36 5.92-5.92 16.8-5.92 22.72 0 2.88 3.04 4.64 7.2 4.64 11.36 0 4.16-1.76 8.32-4.64 11.36-3.04 2.88-7.04 4.64-11.36 4.64zM272 768c-4.16 0-8.32-1.76-11.36-4.64-2.88-3.04-4.64-7.2-4.64-11.36 0-4.16 1.76-8.32 4.64-11.36 5.92-5.92 16.8-5.92 22.72 0 2.88 3.04 4.64 7.2 4.64 11.36 0 4.16-1.76 8.32-4.64 11.36-3.04 2.88-7.04 4.64-11.36 4.64z" fill="#ffffff" /></svg>